PathFileType	4	(X/Y/Z)	Kaydara	
DataRate	CameraRate	NumFrames	NumMarkers	Units	OrigDataRate	OrigDataStartFrame	OrigNumFrames	
120.00	120.00	4	72	mm	120.00	164	261	
Frame#	Time	Hips			RightUpLeg			RightLeg			RightFoot			RightFoot_End			LeftUpLeg			LeftLeg			LeftFoot			LeftFoot_End			Spine			Spine1			Spine2			Spine3			Neck			Head			Head_End			RightShoulder			RightArm			RightForeArm			RightHand			RightHandThumb1			RightHandThumb2			RightHandThumb3			RightHandThumb3_End			RightInHandIndex			RightHandIndex1			RightHandIndex2			RightHandIndex3			RightHandIndex3_End			RightInHandMiddle			RightHandMiddle1			RightHandMiddle2			RightHandMiddle3			RightHandMiddle3_End			RightInHandRing			RightHandRing1			RightHandRing2			RightHandRing3			RightHandRing3_End			RightInHandPinky			RightHandPinky1			RightHandPinky2			RightHandPinky3			RightHandPinky3_End			LeftShoulder			LeftArm			LeftForeArm			LeftHand			LeftHandThumb1			LeftHandThumb2			LeftHandThumb3			LeftHandThumb3_End			LeftInHandIndex			LeftHandIndex1			LeftHandIndex2			LeftHandIndex3			LeftHandIndex3_End			LeftInHandMiddle			LeftHandMiddle1			LeftHandMiddle2			LeftHandMiddle3			LeftHandMiddle3_End			LeftInHandRing			LeftHandRing1			LeftHandRing2			LeftHandRing3			LeftHandRing3_End			LeftInHandPinky			LeftHandPinky1			LeftHandPinky2			LeftHandPinky3			LeftHandPinky3_End			
		X1	Y1	Z1	X2	Y2	Z2	X3	Y3	Z3	X4	Y4	Z4	X5	Y5	Z5	X6	Y6	Z6	X7	Y7	Z7	X8	Y8	Z8	X9	Y9	Z9	X10	Y10	Z10	X11	Y11	Z11	X12	Y12	Z12	X13	Y13	Z13	X14	Y14	Z14	X15	Y15	Z15	X16	Y16	Z16	X17	Y17	Z17	X18	Y18	Z18	X19	Y19	Z19	X20	Y20	Z20	X21	Y21	Z21	X22	Y22	Z22	X23	Y23	Z23	X24	Y24	Z24	X25	Y25	Z25	X26	Y26	Z26	X27	Y27	Z27	X28	Y28	Z28	X29	Y29	Z29	X30	Y30	Z30	X31	Y31	Z31	X32	Y32	Z32	X33	Y33	Z33	X34	Y34	Z34	X35	Y35	Z35	X36	Y36	Z36	X37	Y37	Z37	X38	Y38	Z38	X39	Y39	Z39	X40	Y40	Z40	X41	Y41	Z41	X42	Y42	Z42	X43	Y43	Z43	X44	Y44	Z44	X45	Y45	Z45	X46	Y46	Z46	X47	Y47	Z47	X48	Y48	Z48	X49	Y49	Z49	X50	Y50	Z50	X51	Y51	Z51	X52	Y52	Z52	X53	Y53	Z53	X54	Y54	Z54	X55	Y55	Z55	X56	Y56	Z56	X57	Y57	Z57	X58	Y58	Z58	X59	Y59	Z59	X60	Y60	Z60	X61	Y61	Z61	X62	Y62	Z62	X63	Y63	Z63	X64	Y64	Z64	X65	Y65	Z65	X66	Y66	Z66	X67	Y67	Z67	X68	Y68	Z68	X69	Y69	Z69	X70	Y70	Z70	X71	Y71	Z71	X72	Y72	Z72	

164	1.358	5081.203	893.81699	129.612	5136.997232419601	885.1901267830051	94.67284111756312	5040.765215393779	482.9951229897579	44.39411251873127	5069.375965140167	120.39489576451707	-20.9885037755358	4981.448687723665	32.08175948443869	116.31424055909883	5035.9802362381415	876.1266753258437	179.3912186544738	4921.527778092659	491.5118362967368	297.4454794433749	4808.467769276372	91.24058112655528	440.90577988004156	4668.444123230695	39.30512522914394	323.433133260697	5033.584155589742	1014.6233170165566	70.689618972344	4980.381238922195	1079.3893580937079	21.87960986220327	4920.688100787886	1141.6934969686902	-30.632477466011466	4858.07933248155	1193.1814445703883	-83.73425569259356	4789.564441639295	1249.0690610417334	-137.77537656801397	4717.699701499627	1293.9014676784875	-177.86678358896233	4578.197352271975	1369.9833891530127	-186.7444059803708	4825.925377810479	1239.6193565961091	-128.9228007303254	4877.353976206062	1283.8658841727784	-158.99137482169877	5026.425802118406	1155.06200951979	-211.90754374127232	5179.914137699108	1139.1836207744523	-281.2705419173963	5196.645598611862	1174.0221985941178	-287.81164941331593	5209.355769621216	1186.143394597958	-309.29282310734783	5218.88012443481	1189.9364466053269	-324.9586685577884	5227.395888462961	1189.1221793729667	-338.62287220499474	5201.552840285154	1161.8520204463641	-289.78555573036493	5232.962830320618	1173.643131334407	-310.4361291549605	5249.694949828265	1174.926994200729	-330.9941401274643	5254.298040584321	1174.7972857247298	-344.99343923924425	5254.196236111667	1174.0640317133716	-357.4024944849325	5202.046359359669	1148.4704109038532	-291.2820543169417	5232.951124980251	1152.7349611631632	-312.2316957497058	5251.166028127195	1152.3233477320955	-334.80277803712755	5256.698755097227	1151.2970552856984	-351.75874072072105	5256.5772767924045	1150.0719008208393	-365.36873705961716	5201.656195380112	1138.7576557872842	-291.7582633540829	5229.197792927115	1134.2717592353986	-310.7884283868292	5244.980451155788	1132.0531818899374	-330.57031056920613	5250.267527083433	1130.0755708668803	-346.9834839185096	5250.129758129247	1128.4555807293752	-359.80770385316475	5199.8026030202855	1126.888801561451	-292.1350178345302	5224.141389933986	1115.602815524276	-309.64678120127644	5236.513086908291	1110.9439900766383	-325.5745965450465	5240.240599728524	1108.1072611204545	-337.58862219497223	5240.0443738740205	1105.869804940482	-348.97307749178924	4798.8006131607	1220.33417133337	-111.00041827208555	4760.283927132277	1159.9639951003592	-97.86339492011474	4939.922964405497	1113.2999278067878	-145.35671609797066	5091.674171011131	1117.7028371957874	-203.98887451884409	5104.574616487862	1154.3881111551543	-204.04876232522975	5120.930182780314	1169.711858497113	-191.0544412714167	5133.636771635726	1175.9721488657447	-182.37799029314894	5145.356000699241	1177.4174380200927	-175.46372602270768	5110.832190654227	1143.2167446523636	-206.86385450314745	5143.459659161314	1160.3228270920933	-206.25935671757804	5164.27204120534	1165.4129163046277	-197.9693569353561	5172.56771032265	1167.103090346821	-188.23921141029635	5176.301926066184	1167.5075641034211	-177.09874548445777	5113.187449958484	1130.2998015828991	-207.52479773239003	5146.285802030163	1139.9997220452185	-207.29493648295227	5169.198827868799	1143.785661024255	-198.32824111009174	5179.304439035159	1144.9762060755374	-186.62723893261364	5183.437595234137	1145.006239931697	-174.45605015060198	5114.053162508668	1120.781216666271	-208.08939985151494	5144.567810035082	1121.339487109618	-208.61407619562368	5164.69339670239	1122.8161106625741	-200.8792177712407	5174.523104903767	1122.9962518203085	-189.63543810197442	5178.448184898844	1122.5656637328195	-178.21171503348017	5113.835314410157	1108.9702419399296	-208.1099386665218	5141.814569890595	1102.3532162966383	-208.87952719181965	5158.038121854361	1100.6884645586533	-202.80850798447236	5165.26006158699	1099.4425837554734	-194.66663541338724	5168.7670358234955	1098.2685127548416	-184.58124918877508
165	1.367	5081.203	893.81699	129.612	5136.786064928962	884.8387545428726	94.099316796456	5039.66727893203	482.9995011787346	43.39352712382415	5070.344611829499	120.43185985422994	-21.932785446942077	4982.233901530678	31.866547059891236	115.00032456938028	5036.242606019507	876.5172644440036	179.99388670036066	4922.047216329449	491.8139836841973	298.0082523723968	4809.909887357765	90.63808650256081	439.73725158882274	4669.546564128777	38.43490844559749	322.7886524113318	5033.429176896368	1014.4998109054077	70.56262776994629	4980.227262567163	1079.2553600103693	21.739681224721306	4920.55736471439	1141.5726545661125	-30.777616396411332	4857.998212588108	1193.0995484126381	-83.88506660436735	4789.563163441945	1249.04363100508	-137.9539425551388	4717.939199574877	1294.0606614767635	-178.2450870379728	4578.462176954792	1370.1084090869463	-187.45740135235002	4826.0004187905215	1239.3900180740607	-129.28872233145495	4877.941612496176	1283.324259978491	-160.17764356257874	5025.976333752977	1153.0210634095806	-213.85108359896722	5179.210376451034	1135.4788545617826	-286.2016258114744	5196.496300274836	1170.5383650285387	-293.2351837274525	5209.337029348525	1182.4918601333607	-315.2407569470507	5218.87436657679	1186.113583616153	-331.274539511094	5227.3342796269435	1185.1098282470748	-345.24782473192056	5201.2006177404555	1158.2172259428355	-295.2708209192602	5232.74793701928	1169.807782998632	-316.749476422872	5249.4389238613285	1170.822355671426	-337.8479168346417	5253.994238571773	1170.5140152109507	-352.09703918807946	5253.837912840392	1169.6253423969545	-364.65475423507297	5201.470880493954	1144.6880864089676	-296.7442608958057	5232.388872519401	1148.6772603015945	-318.4891263844684	5250.5288172395285	1147.9528200558775	-341.6441513950371	5255.989472181643	1146.7019075565138	-358.8987455908069	5255.801321654159	1145.3022697875597	-372.6700555773882	5200.920387422554	1134.87713988165	-297.1835941570883	5228.337311245684	1130.0619077164617	-316.8960270535847	5244.02386568881	1127.551696041153	-337.17971581360524	5249.225081765374	1125.3473450287881	-353.87714036745757	5249.016880437203	1123.5585218354208	-366.85123343800456	5198.87089174394	1122.8936714119304	-297.48955114388195	5222.977639453144	1111.237986611463	-315.58554142911737	5235.224912464504	1106.31745963338	-331.90103484270077	5238.8668372833345	1103.3017183616853	-344.1155496370324	5238.595004934947	1100.90686087567	-355.6288290023729	4798.65887481184	1220.4678098131913	-110.96573895391639	4759.617642129581	1160.1619946079236	-97.0388630534397	4939.293457042574	1111.9074500999277	-145.8101821273906	5090.039241678002	1114.759435156155	-206.2387151176976	5103.517768077276	1151.6138684863824	-206.78557156212855	5120.175290710277	1167.0225504618907	-193.98942606376357	5133.006170362115	1173.294805710022	-185.43276526930117	5144.755452002392	1174.7097045870187	-178.60277832967307	5109.5281048189745	1140.2836571713526	-209.61198844055298	5142.307680173496	1157.2531162621312	-209.56303176181967	5163.183281861408	1162.276029519125	-201.48892703028233	5171.55309861403	1163.9887912959898	-191.7710357289292	5175.372189693539	1164.455368074381	-180.55844121551982	5111.642160177096	1127.2444627874754	-210.19592704768965	5144.7584176805585	1136.7449911116014	-210.4663212385688	5167.708055752424	1140.441974773371	-201.7230343345667	5177.887588496403	1141.652260400925	-190.0309732889952	5182.1060616631485	1141.7465945953056	-177.7780220757667	5112.333481631178	1117.642374817996	-210.6936738453339	5142.712502562843	1117.9476527437807	-211.61368980620927	5162.836884871242	1119.3310647028127	-204.06030299581118	5172.720309982584	1119.5219213545513	-192.81810945798685	5176.717275713855	1119.1478468766534	-181.31417394356944	5111.911011276485	1105.7439921703476	-210.6074762826689	5139.639438874183	1098.8389155503344	-211.6798323305372	5155.810954611736	1097.0761725592806	-205.7317169417214	5163.047370795597	1095.8268119817067	-197.5801600599047	5166.603805818066	1094.6963018881108	-187.41747909642828
166	1.375	5081.203	893.81699	129.612	5136.577993706198	884.4699209849213	93.4535450856411	5038.503945188058	482.9910407888889	42.40700948494586	5071.423219027091	120.44492742296181	-22.820180783898063	4983.049971060646	31.66201948682465	113.72604935220059	5036.512007848974	876.9267459741098	180.66310871189006	4922.610318807286	492.1072563912265	298.5849431602055	4811.390812724262	89.98292801574202	438.3867673893899	4670.612349943077	37.48592031039064	322.07556406610473	5033.235057135078	1014.3747583276458	70.46493526539057	4980.031793931202	1079.117797041594	21.628432042485713	4920.387616365269	1141.4456789106396	-30.90027663125559	4857.886910677963	1193.0064205011795	-84.02847200672117	4789.54256930749	1249.0023779345713	-138.14284904512292	4718.194271211615	1294.2131387547097	-178.6768291480204	4578.744546074313	1370.226074187097	-188.24797033485748	4826.070308349524	1239.1202893456514	-129.68989632436913	4878.612657507172	1282.5795771723776	-161.549044347625	5025.276096078039	1150.4769111914686	-215.91929513072796	5178.017690213035	1130.826770905632	-291.44979906874704	5195.890188699096	1166.031980778667	-299.0717494396573	5208.815683858829	1177.755965285755	-321.6581368832713	5218.324682974896	1181.1648536506736	-338.0904381139536	5226.686229988019	1179.9383233783296	-352.39085196070255	5200.365905991902	1153.5562920735197	-301.1493906657945	5232.002950197015	1164.8410569467949	-323.5287182259658	5248.5919786043305	1165.5248466399141	-345.20379858386286	5253.057874823128	1165.0130032360912	-359.718863025609	5252.809978827812	1163.9573371290414	-372.4342670163842	5200.387602053099	1139.8880258831223	-302.57288754500433	5231.258706191	1143.5037191171036	-325.16924143761975	5249.254099625478	1142.4008159660968	-348.9439213800165	5254.5908973308315	1140.895980562634	-366.51476999950717	5254.294785173743	1139.3095366067264	-380.4563865300582	5199.66032303773	1129.987380282268	-302.95460155377776	5226.885027704438	1124.7618827623842	-323.38202028609567	5242.411622425293	1121.9044813431517	-344.19466802910955	5247.475329053642	1119.4460033792673	-361.19123182440046	5247.157067959544	1117.4771766359484	-374.3226533651433	5197.395680497272	1117.9031594277646	-303.1629403177325	5221.197262885355	1105.8116227330106	-321.8569997395476	5233.26428128566	1100.587840613644	-338.57556976627774	5236.7806725087385	1097.3745297634732	-350.99836426821264	5236.396822597258	1094.8131922840134	-362.64530572239005	4798.4745679306025	1220.6122208007475	-110.90376574985213	4758.835477885102	1160.3693783020462	-96.02044926931615	4938.430284898266	1110.1868348880498	-146.22403737708487	5088.050547725101	1111.0384013845091	-208.53946564958588	5102.156412354226	1147.9838781762264	-209.663123372804	5119.170979019492	1163.426789867166	-197.10238886086685	5132.156180876327	1169.6776131911927	-188.6814992776472	5143.953423379257	1171.0359178406352	-181.9406005888651	5107.891473643355	1136.4909669646256	-212.47689922772238	5140.8363350858635	1153.2210010823637	-213.0322596630994	5161.798698685277	1158.124159601808	-205.18951469974212	5170.27095172616	1159.8436464579054	-195.4876692091565	5174.2075416447415	1160.3705461246695	-184.2021567301349	5109.741888499552	1123.3392067402965	-212.9541955095498	5142.876766046678	1132.5453067821925	-213.75639402939896	5165.88572039345	1136.0975963388216	-205.2492987424614	5176.171871432113	1137.3092695548241	-193.5687896360095	5180.510661205248	1137.4663377910776	-181.23225765935177	5110.242433334653	1113.662881380793	-213.36303557557858	5140.471665722896	1113.637452144635	-214.6879100679357	5160.6115824296985	1114.8808936219457	-207.32290319383216	5170.578643251721	1115.0657311286072	-196.0825658178809	5174.679635646034	1114.747156425006	-184.49564277186104	5109.597631650764	1101.6923275236877	-213.14223090580734	5137.050665146937	1094.4366079785327	-214.50936263098674	5153.178853044135	1092.5416158033902	-208.68303568661688	5160.44929728759	1091.2781097574036	-200.51877592064574	5164.082357525234	1090.191149156077	-190.27449141818647
167	1.383	5081.203	893.81699	129.612	5136.368413347516	884.0817498222384	92.73619357888776	5037.2810579675415	482.9624926137411	41.4506134716486	5072.610465428246	120.4310130077557	-23.648385860578117	4983.898229786326	31.467582188450248	112.49945615629653	5036.792612097573	877.3562650711212	181.39731208418303	4923.22419031322	492.3927865135095	299.17547474850016	4812.905419390387	89.28324869758517	436.8579918945459	4671.643214684443	36.46455384527309	321.29081520156797	5033.004121140754	1014.2511827642007	70.40015896851904	4979.797077883783	1078.9803662645002	21.55036299819972	4920.18059978046	1141.3165340110947	-30.995177285759617	4857.745986345089	1192.9056568524054	-84.15835876772557	4789.501747285667	1248.948236338222	-138.33499057687172	4718.4611805539	1294.3597870864637	-179.15209459971666	4579.04097480246	1370.3392495278374	-189.09909478512122	4826.131305694527	1238.8106631563342	-130.11925654189085	4879.347192518944	1281.609270205888	-163.09551907258844	5024.2816869062535	1147.4164907405996	-218.06178844154627	5176.240606815684	1125.2102476767298	-296.898760461858	5194.718650218454	1160.4700795649069	-305.2028064169936	5207.671444218985	1171.8989239422017	-328.41559076345777	5217.1033971537245	1175.0526678552872	-345.26810363365274	5225.318540103552	1173.5709956427609	-359.90513239169525	5198.941426014933	1147.8406021305468	-307.29805423505013	5230.60583758871	1158.7073617856968	-330.6335491176445	5247.022474667686	1158.9985889734285	-352.90767765322795	5251.352238774059	1158.2597284066035	-367.6975981677817	5250.972134237938	1157.0276529101757	-380.57468493954605	5198.69181100727	1134.0471242471535	-308.6415693173888	5229.4429108549475	1137.1874095776307	-332.1272967258983	5247.214064123878	1135.6408501129772	-356.541919660349	5252.36928703582	1133.8547883955546	-374.43777896919676	5251.920086874087	1132.0717533088975	-388.5531007024145	5197.773473771387	1124.0693082440719	-308.94313553958693	5224.728643770018	1118.3525891122708	-330.1002579988734	5240.0230394526225	1115.0936070739494	-351.45523111731177	5244.892085932412	1112.3559573537898	-368.7570878514114	5244.420634746633	1110.1985388346018	-382.0479470745846	5195.2774237252615	1111.9033316134914	-309.02541682944354	5218.693571758582	1099.312809348371	-328.3138987272443	5230.518484010255	1093.746366233692	-345.43944906189455	5233.865718356788	1090.3192247616146	-358.0717226156836	5233.330529493579	1087.584954385234	-369.8523015714371	4798.250562527095	1220.773382672697	-110.80786648166549	4757.9526896479365	1160.6100025462479	-94.79312004326248	4937.3112437186555	1108.1455882843763	-146.55964427571988	5085.671820681679	1106.5277954881399	-210.8171363818084	5100.44360095926	1143.4723249520262	-212.60699567572652	5117.867536365578	1158.8912490874068	-200.32141151377562	5131.036323847844	1165.0835388691578	-192.05315257386508	5142.899784316341	1166.3572629365797	-185.40614507773185	5105.877921967102	1131.8167015687018	-215.38040341115243	5138.995709321696	1148.196387880297	-216.58192236130967	5160.067681416184	1152.923470074624	-208.9844863799715	5168.671449037479	1154.6319266500282	-199.30459611102194	5172.759639264842	1155.2160953510845	-187.94919329583843	5107.445747287724	1118.5665870065664	-215.7194648201718	5140.596442007834	1127.377749028697	-217.07719441831017	5163.687139627088	1130.7261474756783	-208.8171888757111	5174.113789695109	1131.9188721709602	-197.1532866034309	5178.609625337582	1132.1358604943248	-184.73547807629572	5107.741709653441	1108.8286837813366	-216.01610195450397	5137.806003547814	1108.3928411933239	-217.747144203714	5157.97845050767	1109.4471876154855	-210.57555894280313	5168.060472693095	1109.6077028595132	-199.33958652160106	5172.29938442725	1109.342604177908	-187.67072080915196	5106.860203104711	1096.805429103475	-215.63190588272866	5134.014338679609	1089.137218508719	-217.2775897145803	5150.108895315675	1087.0748453751773	-211.5701282898608	5157.434323813941	1085.7858777698464	-203.39162871091264	5161.172943264943	1084.741844728815	-193.0647286446252
